<svg width="28" height="23" viewBox="0 0 28 23" fill="none" xmlns="http://www.w3.org/2000/svg">
<path d="M27.5029 2.68342C26.4895 3.13168 25.4148 3.42608 24.3145 3.55686C25.4743 2.8632 26.3424 1.7715 26.7569 0.485204C25.6684 1.13299 24.4751 1.58697 23.2313 1.83254C22.3958 0.938624 21.2884 0.345775 20.0812 0.146159C18.8741 -0.0534567 17.6348 0.151345 16.556 0.728724C15.4772 1.3061 14.6195 2.22371 14.116 3.33889C13.6125 4.45407 13.4916 5.70434 13.7721 6.89533C11.5647 6.7847 9.40527 6.21108 7.43398 5.21171C5.4627 4.21235 3.72362 2.80959 2.32966 1.09449C1.83624 1.94199 1.57695 2.9054 1.57834 3.88606C1.57834 5.81083 2.55798 7.51126 4.04735 8.50683C3.16595 8.47908 2.30395 8.24105 1.5332 7.81258V7.88161C1.53347 9.1635 1.97705 10.4059 2.78875 11.398C3.60044 12.3902 4.73028 13.0711 5.98671 13.3254C5.16851 13.5471 4.31058 13.5798 3.47788 13.4209C3.83213 14.5243 4.52257 15.4893 5.45255 16.1808C6.38252 16.8723 7.50545 17.2556 8.66413 17.2771C7.51256 18.1815 6.19403 18.8501 4.78391 19.2446C3.37379 19.6391 1.89974 19.7518 0.446045 19.5762C2.98368 21.2082 5.93773 22.0746 8.95483 22.0718C19.1667 22.0718 24.7512 13.6121 24.7512 6.27543C24.7512 6.03649 24.7445 5.7949 24.7339 5.55862C25.8209 4.77301 26.759 3.79981 27.5042 2.68475L27.5029 2.68342Z" fill="#1DA1F2"/>
</svg>
