<svg width="156" height="258" viewBox="0 0 156 258" fill="none" xmlns="http://www.w3.org/2000/svg">
<path d="M155.91 0H0V257.95H155.91V0Z" fill="#F3F3F1"/>
<path opacity="0.8" d="M155.91 0H0V257.95H155.91V0Z" fill="#F3F3F1"/>
<path opacity="0.8" d="M12.36 34.11C26 30.63 53.1 43.72 75.25 59.54C81.69 48.86 89.04 40.45 96.58 36.54C96.0018 29.4219 96.9496 22.2624 99.36 15.54C100.602 10.2844 102.117 5.09738 103.9 0L0 0V42.41C3.63 38.33 7.75 35.28 12.36 34.11Z" fill="#154F97"/>
<path opacity="0.8" d="M62.6601 157.19C61.7301 157.79 60.8101 158.38 59.8901 158.95C78.5101 177.59 106.63 231.41 105.89 255.95C105.89 256.64 105.81 257.31 105.76 257.95H155.95V189.95C151.35 191.95 146.77 194.01 142.41 196.19C116.93 208.89 86.1001 178.24 62.6601 157.19Z" fill="#154F97"/>
<path opacity="0.8" d="M97.8902 44.73C92.136 51.1762 85.7095 56.9892 78.7202 62.07C90.8702 71.12 101.15 80.8 106.28 88.64C115.87 103.32 99.9002 126.64 79.4702 144.44C99.4102 141.96 126.23 145.59 155.91 148.65V95.4C133.41 95.8 104.65 73.12 97.8902 44.73Z" fill="#5FC0C6"/>
<path opacity="0.8" d="M97.89 44.7298C97.243 42.0376 96.805 39.2995 96.58 36.5398C89.04 40.4498 81.69 48.8598 75.25 59.5398C76.42 60.3798 77.58 61.2198 78.72 62.0698C85.7093 56.989 92.1358 51.176 97.89 44.7298V44.7298Z" fill="#5FC0C6"/>
<path opacity="0.8" d="M79.4702 144.44C74.1634 149.067 68.547 153.327 62.6602 157.19C86.1002 178.24 116.93 208.89 142.37 196.19C146.73 194.01 151.31 191.97 155.91 189.95V148.65C126.23 145.59 99.4102 142 79.4702 144.44Z" fill="#5FC0C6"/>
<path opacity="0.8" d="M46.74 165.85L46.12 166.12C32.75 171.62 14.47 165.34 0 152.62V258H58.76C51.94 240.6 47.59 219.48 44.65 194.61C43.22 182.47 44 173.09 46.74 165.85Z" fill="#5FC0C6"/>
<path opacity="0.8" d="M59.8898 159C55.6858 161.627 51.29 163.933 46.7398 165.9C44.0298 173.14 43.2198 182.52 44.6498 194.61C47.5898 219.48 51.9398 240.61 58.7598 258H105.76C105.76 257.33 105.87 256.66 105.89 256C106.63 231.41 78.5098 177.59 59.8898 159Z" fill="#5FC0C6"/>
<path opacity="0.8" d="M18.5 148.81C18.5 148.81 34.24 149.74 50.29 152.51C51.7582 152.836 53.148 153.447 54.38 154.31C55.326 153.436 56.3282 152.624 57.38 151.88C47.44 137.24 55.7 96.88 70.82 67.5C45.35 83.85 15.72 92.43 0 90.68V146.12C6.19 143.47 12.49 144 18.5 148.81Z" fill="#EA897A"/>
<path opacity="0.8" d="M70.83 67.4998C72.2367 64.7398 73.71 62.0732 75.25 59.4998C53.1 43.7198 26 30.6298 12.36 34.1098C7.75 35.2798 3.63 38.3298 0 42.4098V90.6798C15.72 92.4298 45.35 83.8498 70.83 67.4998Z" fill="#EA897A"/>
<path opacity="0.8" d="M57.3901 151.88C56.3383 152.624 55.3362 153.435 54.3901 154.31C56.3774 155.683 58.2201 157.255 59.8901 159C60.8101 158.43 61.7301 157.84 62.6601 157.24C61.6601 156.32 60.6601 155.42 59.6601 154.55C58.7924 153.761 58.0296 152.863 57.3901 151.88V151.88Z" fill="#EA897A"/>
<path opacity="0.8" d="M106.28 88.6398C101.15 80.7998 90.87 71.1198 78.72 62.0698C76.15 63.9698 73.51 65.7798 70.83 67.4998C55.71 96.8998 47.45 137.24 57.39 151.88C63.17 147.82 70.65 145.54 79.47 144.44C99.9 126.63 115.87 103.32 106.28 88.6398Z" fill="#EA897A"/>
<path opacity="0.8" d="M75.2501 59.5398C73.7167 62.0798 72.2434 64.7465 70.8301 67.5398C73.5101 65.8198 76.1501 64.0098 78.7201 62.1098C77.5801 61.2198 76.4201 60.3798 75.2501 59.5398Z" fill="#EA897A"/>
<path opacity="0.8" d="M59.6499 154.5C60.6499 155.37 61.6499 156.27 62.6499 157.19C68.5367 153.327 74.1531 149.067 79.4599 144.44C70.6399 145.54 63.1599 147.82 57.3799 151.88C58.0227 152.846 58.7855 153.726 59.6499 154.5V154.5Z" fill="#EA897A"/>
<path opacity="0.8" d="M46.12 166.12L46.74 165.85C48.331 161.45 50.9504 157.493 54.38 154.31C53.148 153.447 51.7582 152.836 50.29 152.51C34.29 149.74 18.5 148.81 18.5 148.81C12.5 143.95 6.19 143.47 0 146.12V152.62C14.47 165.34 32.75 171.62 46.12 166.12Z" fill="#EA897A"/>
<path opacity="0.8" d="M54.3802 154.31C50.9507 157.493 48.3313 161.449 46.7402 165.85C51.289 163.899 55.6847 161.609 59.8902 159C58.2171 157.254 56.371 155.683 54.3802 154.31V154.31Z" fill="#EA897A"/>
<path opacity="0.8" d="M116.75 38.44C116.75 38.44 132.49 39.37 148.54 42.14C150.63 42.51 153.14 44.04 155.91 46.47V0H116.73C116.63 12.42 112.56 23.88 105.91 34.17C109.903 34.3246 113.725 35.8301 116.75 38.44V38.44Z" fill="#EA897A"/>
<path opacity="0.8" d="M96.58 36.54C99.4401 34.975 102.65 34.1597 105.91 34.17C112.56 23.88 116.63 12.42 116.73 0H103.9C102.118 5.08426 100.603 10.2579 99.36 15.5C96.9439 22.2349 95.996 29.4087 96.58 36.54V36.54Z" fill="#EA897A"/>
<path opacity="0.8" d="M116.75 38.4399C113.725 35.83 109.903 34.3245 105.91 34.1699C103.503 37.8792 100.829 41.4085 97.9102 44.7299C104.67 73.1199 133.43 95.7999 155.91 95.3999V46.4699C153.14 44.0399 150.63 42.4699 148.54 42.1399C132.49 39.3699 116.75 38.4399 116.75 38.4399Z" fill="#EA897A"/>
<path opacity="0.8" d="M105.91 34.17C102.65 34.1597 99.4401 34.9751 96.5801 36.54C96.8051 39.2997 97.2431 42.0378 97.8901 44.73C100.816 41.4092 103.496 37.8799 105.91 34.17V34.17Z" fill="#EA897A"/>
<g opacity="0.6">
<g opacity="0.75">
<path opacity="0.75" d="M12.36 34.11C26.02 30.6 53.1 43.72 75.25 59.54C81.69 48.86 89.03 40.45 96.58 36.54C96.0032 29.4228 96.9474 22.2643 99.35 15.54C100.599 10.2995 102.114 5.1261 103.89 0.0400391H0V42.45C3.63 38.33 7.75 35.28 12.36 34.11Z" fill="#154F97"/>
<path opacity="0.75" d="M62.6599 157.19C61.7299 157.79 60.8099 158.38 59.8799 158.95C78.5099 177.59 106.63 231.41 105.88 255.95C105.88 256.64 105.8 257.31 105.74 257.95H155.93V189.95C151.33 191.95 146.76 194.01 142.4 196.19C116.93 208.89 86.0999 178.24 62.6599 157.19Z" fill="#154F97"/>
<path opacity="0.75" d="M97.8802 44.73C92.1346 51.181 85.7109 56.9946 78.7202 62.07C90.8702 71.12 101.15 80.8 106.28 88.65C115.87 103.32 99.9002 126.6 79.4502 144.44C99.4502 141.96 126.23 145.6 155.9 148.66V95.4C133.45 95.8 104.64 73.12 97.8802 44.73Z" fill="#5FC0C6"/>
<path opacity="0.75" d="M97.88 44.73C97.2363 42.0376 96.8017 39.2995 96.58 36.54C89.03 40.45 81.69 48.86 75.25 59.54C76.42 60.38 77.58 61.22 78.72 62.07C85.7106 56.9946 92.1343 51.1811 97.88 44.73V44.73Z" fill="#5FC0C6"/>
<path opacity="0.75" d="M79.4499 144.44C74.1491 149.07 68.5358 153.33 62.6499 157.19C86.0899 178.19 116.92 208.89 142.36 196.19C146.72 194.01 151.29 191.97 155.89 189.95V148.66C126.23 145.6 99.4499 141.96 79.4499 144.44Z" fill="#5FC0C6"/>
<path opacity="0.75" d="M46.74 165.86L46.12 166.12C32.75 171.6 14.45 165.34 0 152.6V257.95H58.76C51.94 240.6 47.59 219.43 44.65 194.6C43.22 182.47 44.03 173.09 46.74 165.86Z" fill="#5FC0C6"/>
<path opacity="0.75" d="M59.8798 158.95C55.6782 161.578 51.2859 163.887 46.7398 165.86C44.0298 173.09 43.2198 182.47 44.6498 194.56C47.5898 219.43 51.9398 240.56 58.7598 257.95H105.76C105.82 257.28 105.88 256.61 105.9 255.95C106.63 231.41 78.5098 177.6 59.8798 158.95Z" fill="#5FC0C6"/>
<path opacity="0.75" d="M18.5 148.81C18.5 148.81 34.24 149.74 50.29 152.51C51.7556 152.834 53.1424 153.446 54.37 154.31C55.3163 153.436 56.3184 152.624 57.37 151.88C47.45 137.24 55.71 96.9 70.82 67.5C45.34 83.85 15.72 92.43 0 90.68V146.12C6.19 143.47 12.45 143.95 18.5 148.81Z" fill="#EA897A"/>
<path opacity="0.75" d="M70.82 67.5001C72.24 64.7401 73.7167 62.0734 75.25 59.5001C53.1 43.7201 26.02 30.6001 12.36 34.1101C7.75 35.2801 3.63 38.3301 0 42.4101V90.6801C15.72 92.4301 45.34 83.8501 70.82 67.5001Z" fill="#EA897A"/>
<path opacity="0.75" d="M57.3901 151.88C56.3385 152.624 55.3364 153.436 54.3901 154.31C56.3824 155.662 58.229 157.217 59.9001 158.95C60.8301 158.38 61.7501 157.79 62.6801 157.19C61.6801 156.27 60.6801 155.38 59.6801 154.5C58.8083 153.728 58.0387 152.847 57.3901 151.88V151.88Z" fill="#EA897A"/>
<path opacity="0.75" d="M106.28 88.6501C101.15 80.8001 90.8698 71.1201 78.7198 62.0701C76.1531 63.9701 73.5198 65.7801 70.8198 67.5001C55.7098 96.9001 47.4498 137.24 57.3898 151.88C63.1698 147.82 70.6498 145.54 79.4498 144.44C99.8998 126.6 115.87 103.32 106.28 88.6501Z" fill="#EA897A"/>
<path opacity="0.75" d="M75.2498 59.54C73.7165 62.08 72.2398 64.7467 70.8198 67.54C73.4865 65.82 76.1198 64.01 78.7198 62.11C77.5798 61.22 76.4498 60.38 75.2498 59.54Z" fill="#EA897A"/>
<path opacity="0.75" d="M59.6399 154.5C60.6399 155.38 61.6399 156.27 62.6399 157.19C68.5292 153.331 74.1458 149.071 79.4499 144.44C70.6399 145.54 63.1599 147.82 57.3799 151.88C58.0192 152.845 58.7786 153.726 59.6399 154.5V154.5Z" fill="#EA897A"/>
<path opacity="0.75" d="M46.12 166.12L46.74 165.86C48.3247 161.456 50.941 157.496 54.37 154.31C53.1424 153.446 51.7556 152.834 50.29 152.51C34.24 149.74 18.5 148.81 18.5 148.81C12.5 143.95 6.19 143.47 0 146.12V152.6C14.45 165.34 32.75 171.6 46.12 166.12Z" fill="#EA897A"/>
<path opacity="0.75" d="M54.3702 154.31C50.9412 157.496 48.3249 161.456 46.7402 165.86C51.2864 163.888 55.6786 161.578 59.8802 158.95C58.2091 157.217 56.3625 155.662 54.3702 154.31V154.31Z" fill="#EA897A"/>
<path opacity="0.75" d="M116.75 38.44C116.75 38.44 132.49 39.37 148.54 42.15C150.63 42.51 153.13 44.04 155.9 46.48V0H116.72C116.63 12.42 112.55 23.88 105.9 34.17C109.896 34.3223 113.722 35.828 116.75 38.44V38.44Z" fill="#EA897A"/>
<path opacity="0.75" d="M96.5802 36.54C99.4368 34.9755 102.643 34.1601 105.9 34.17C112.55 23.88 116.63 12.42 116.72 0H103.89C102.114 5.08606 100.599 10.2595 99.3502 15.5C96.942 22.2367 95.9977 29.4095 96.5802 36.54V36.54Z" fill="#EA897A"/>
<path opacity="0.75" d="M116.75 38.4399C113.722 35.8279 109.896 34.3222 105.9 34.1699C103.496 37.8814 100.822 41.411 97.8999 44.7299C104.66 73.1199 133.43 95.7999 155.9 95.3999V46.4799C153.13 44.0399 150.63 42.4799 148.54 42.1499C132.45 39.3699 116.75 38.4399 116.75 38.4399Z" fill="#EA897A"/>
<path opacity="0.75" d="M105.9 34.17C102.643 34.1601 99.4367 34.9755 96.5801 36.54C96.8017 39.2994 97.2364 42.0376 97.8801 44.73C100.809 41.4118 103.49 37.8822 105.9 34.17V34.17Z" fill="#EA897A"/>
</g>
</g>
</svg>
