<svg width="53" height="69" viewBox="0 0 53 69" fill="none" xmlns="http://www.w3.org/2000/svg">
<path d="M53 69H46.375V62.4286C46.375 59.8143 45.328 57.3071 43.4644 55.4585C41.6007 53.6099 39.0731 52.5714 36.4375 52.5714H16.5625C13.9269 52.5714 11.3993 53.6099 9.53563 55.4585C7.67198 57.3071 6.625 59.8143 6.625 62.4286V69H0V62.4286C0 58.0714 1.74497 53.8928 4.85104 50.8118C7.95712 47.7309 12.1699 46 16.5625 46H36.4375C40.8301 46 45.0429 47.7309 48.149 50.8118C51.255 53.8928 53 58.0714 53 62.4286V69ZM26.5 39.4286C23.89 39.4286 21.3055 38.9186 18.8942 37.9279C16.4828 36.9372 14.2918 35.485 12.4463 33.6544C10.6007 31.8238 9.13671 29.6505 8.13789 27.2586C7.13908 24.8668 6.625 22.3032 6.625 19.7143C6.625 17.1254 7.13908 14.5618 8.13789 12.17C9.13671 9.77811 10.6007 7.60482 12.4463 5.77418C14.2918 3.94354 16.4828 2.4914 18.8942 1.50066C21.3055 0.509925 23.89 -3.85779e-08 26.5 0C31.7712 7.79115e-08 36.8265 2.07703 40.5537 5.77418C44.281 9.47133 46.375 14.4857 46.375 19.7143C46.375 24.9428 44.281 29.9572 40.5537 33.6544C36.8265 37.3515 31.7712 39.4286 26.5 39.4286V39.4286ZM26.5 32.8571C30.0141 32.8571 33.3843 31.4725 35.8692 29.0077C38.354 26.5429 39.75 23.2 39.75 19.7143C39.75 16.2286 38.354 12.8856 35.8692 10.4209C33.3843 7.95612 30.0141 6.57143 26.5 6.57143C22.9859 6.57143 19.6157 7.95612 17.1308 10.4209C14.646 12.8856 13.25 16.2286 13.25 19.7143C13.25 23.2 14.646 26.5429 17.1308 29.0077C19.6157 31.4725 22.9859 32.8571 26.5 32.8571V32.8571Z" fill="#BDBDBD"/>
</svg>
